<svg xmlns="http://www.w3.org/2000/svg" width="56" height="56" viewBox="0 0 56 56" fill="none"><rect opacity="0.5" width="56" height="56" rx="4" fill="#C2E0EC"></rect><path d="M45.09 16H44.68V30.2C44.6774 31.3104 44.2351 32.3747 43.4499 33.1599C42.6647 33.9451 41.6005 34.3874 40.49 34.39H25.56L22.27 37.82H35.18L42.45 45.43C42.626 45.5712 42.8445 45.6487 43.07 45.65C43.2041 45.6497 43.3367 45.6225 43.46 45.57C43.624 45.4966 43.7632 45.3772 43.8608 45.2264C43.9584 45.0756 44.0102 44.8997 44.01 44.72V37.82H45.09C45.8019 37.7812 46.4698 37.4634 46.9489 36.9355C47.4281 36.4077 47.68 35.7123 47.65 35V18.82C47.68 18.1077 47.4281 17.4123 46.9489 16.8845C46.4698 16.3566 45.8019 16.0388 45.09 16V16Z" fill="#88BCCF"></path><path d="M39.3398 10.1504H14.7098C13.9935 10.1917 13.3225 10.5144 12.843 11.0483C12.3635 11.5821 12.1143 12.2837 12.1498 13.0004V29.1504C12.1143 29.8671 12.3635 30.5687 12.843 31.1025C13.3225 31.6363 13.9935 31.9591 14.7098 32.0004H15.7898V38.9004C15.8076 39.1533 15.9207 39.39 16.1064 39.5627C16.292 39.7353 16.5363 39.831 16.7898 39.8304C17.0119 39.8269 17.2266 39.7494 17.3998 39.6104L24.6298 32.0004H40.3698C40.8517 31.9978 41.3131 31.8052 41.6538 31.4644C41.9946 31.1237 42.1872 30.6623 42.1898 30.1804V13.0004C42.1898 12.2445 41.8895 11.5196 41.3551 10.9851C40.8206 10.4507 40.0957 10.1504 39.3398 10.1504Z" stroke="#606F85" stroke-linecap="round" stroke-linejoin="round"></path><path d="M19.5 17.5H34.5" stroke="#606F85" stroke-linecap="round" stroke-linejoin="round"></path><path d="M19.5 23.5H28.5" stroke="#606F85" stroke-linecap="round" stroke-linejoin="round"></path></svg>